<?xml version="1.0" encoding="UTF-8" standalone="no"?>
<!-- Created with Inkscape (http://www.inkscape.org/) -->

<svg
   width="223.44708mm"
   height="144.09076mm"
   viewBox="0 0 223.44708 144.09076"
   version="1.1"
   id="svg5"
   xml:space="preserve"
   xmlns:inkscape="http://www.inkscape.org/namespaces/inkscape"
   xmlns:sodipodi="http://sodipodi.sourceforge.net/DTD/sodipodi-0.dtd"
   xmlns="http://www.w3.org/2000/svg"
   xmlns:svg="http://www.w3.org/2000/svg"><sodipodi:namedview
     id="namedview7"
     pagecolor="#ffffff"
     bordercolor="#000000"
     borderopacity="0.25"
     inkscape:showpageshadow="2"
     inkscape:pageopacity="0.0"
     inkscape:pagecheckerboard="0"
     inkscape:deskcolor="#d1d1d1"
     inkscape:document-units="mm"
     showgrid="false" /><defs
     id="defs2" /><g
     inkscape:label="Layer 1"
     inkscape:groupmode="layer"
     id="layer1"
     transform="translate(13.447091,-63.869864)"><g
       id="g392"
       transform="matrix(0.26458333,0,0,0.26458333,-13.447086,63.869861)"><g
         id="g1156"
         inkscape:export-filename="work.svg"
         inkscape:export-xdpi="96"
         inkscape:export-ydpi="96"><path
           d="m 931.14105,699.03863 13.887,0.36551 a 44.822,44.822 0 0 0 6.7571,-20.48 c -8.89865,9.43551 -24.595,7.065 -36.08827,13.07507 a 26.96057,26.96057 0 0 0 -13.82546,18.84016 l -5.72591,8.01794 a 45.17742,45.17742 0 0 0 37.19059,-6.91016 43.63879,43.63879 0 0 0 8.00025,-7.47307 c -5.15087,-2.38263 -10.1953,-5.43545 -10.1953,-5.43545 z"
           transform="translate(-177.73951,-177.70246)"
           fill="#f2f2f2"
           id="path237" /><path
           d="m 923.49136,677.89435 12.5925,-5.8662 a 44.82209,44.82209 0 0 0 -3.08581,-21.344 c -3.75662,12.41382 -18.86274,17.29241 -26.4693,27.79742 a 26.96057,26.96057 0 0 0 -3.972,23.02864 l -1.54908,9.73 A 45.17742,45.17742 0 0 0 931.213,688.469 a 43.63836,43.63836 0 0 0 3.82772,-10.25668 c -5.67287,0.16468 -11.54936,-0.31797 -11.54936,-0.31797 z"
           transform="translate(-177.73951,-177.70246)"
           fill="#f2f2f2"
           id="path239" /><polygon
           points="725.085,501.092 725.084,533.946 716.566,533.946 712.514,501.092 "
           fill="#a0616a"
           id="polygon241" /><path
           d="m 902.59641,708.86507 -9.08836,-3.69172 -0.26812,-0.11 -5.01854,3.80174 a 10.685,10.685 0 0 0 -10.67646,10.22271 c -0.0138,0.15122 -0.0138,0.30937 -0.0138,0.46747 v 0.35062 h 27.46452 v -11.0408 z"
           transform="translate(-177.73951,-177.70246)"
           fill="#2f2e41"
           id="path243" /><polygon
           points="692.202,488.639 708.863,516.955 701.522,521.275 681.367,495.014 "
           fill="#a0616a"
           id="polygon245" /><path
           d="m 891.67247,698.9861 -0.9968,-1.69808 -3.60923,-6.13224 -1.87683,1.10682 -0.19247,0.11 -9.7071,1.42991 -0.28877,0.0413 -2.39239,5.82287 A 10.68981,10.68981 0 0 0 868.814,714.303 l 0.17875,0.2956 23.66966,-13.92815 z"
           transform="translate(-177.73951,-177.70246)"
           fill="#2f2e41"
           id="path247" /><path
           d="m 913.61121,510.79661 c 3.9935,12.04439 3.5713,25.11823 -0.9599,39.15 l -1.18267,48.23631 -3.79864,30.42667 a 52.09865,52.09865 0 0 1 3.46672,18.68115 c -0.0161,16.74127 -1.14179,40.52495 -6.84893,51.6977 H 890.782 l -3.04874,-49.75469 -3.63816,-25.01587 -0.44852,-26.80669 -0.39118,-23.37977 -14.685,21.47379 -14.26985,20.86666 14.18354,23.92474 12.3745,38.49844 -13.062,10.99955 -14.81769,-28.09247 -7.18142,-8.34355 -19.60394,-42.43815 1.76178,-5.90879 a 139.78376,139.78376 0 0 1 15.66252,-34.53159 v 0 l 19.49945,-45.25659 z"
           transform="translate(-177.73951,-177.70246)"
           fill="#2f2e41"
           id="path249" /><path
           d="M 688.66247,519.79661 H 420.65233 a 8.07558,8.07558 0 0 1 -8.06636,-8.06636 V 306.86267 a 8.07532,8.07532 0 0 1 8.06636,-8.06606 h 268.01014 a 8.07532,8.07532 0 0 1 8.06636,8.06606 v 204.86758 a 8.07557,8.07557 0 0 1 -8.06636,8.06636 z"
           transform="translate(-177.73951,-177.70246)"
           fill="#ffffff"
           id="path251" /><path
           d="M 688.66229,520.79661 H 420.65252 a 9.077,9.077 0 0 1 -9.06641,-9.06641 V 306.86253 a 9.07653,9.07653 0 0 1 9.06641,-9.06592 h 268.00977 a 9.07652,9.07652 0 0 1 9.0664,9.06592 V 511.7302 a 9.07694,9.07694 0 0 1 -9.0664,9.06641 z m -268.00977,-221 a 7.07424,7.07424 0 0 0 -7.06641,7.06592 V 511.7302 a 7.07434,7.07434 0 0 0 7.06641,7.06641 h 268.00977 a 7.07434,7.07434 0 0 0 7.0664,-7.06641 V 306.86253 a 7.07423,7.07423 0 0 0 -7.0664,-7.06592 z"
           transform="translate(-177.73951,-177.70246)"
           fill="#f0f0f0"
           id="path253" /><path
           d="m 413.205,480.79661 v 30.93379 a 7.45828,7.45828 0 0 0 7.44716,7.44716 h 268.01046 a 7.45828,7.45828 0 0 0 7.44716,-7.44716 v -30.93379 z"
           transform="translate(-177.73951,-177.70246)"
           fill="#f0f0f0"
           id="path255" /><rect
           x="554.65076"
           y="224.09029"
           width="1.99962"
           height="333.5596"
           transform="rotate(-57.37135,304.39432,464.43919)"
           fill="#f0f0f0"
           id="rect257" /><path
           d="M 875.60125,214.25494 H 243.27789 a 1.01559,1.01559 0 0 1 0,-2.03069 h 632.32336 a 1.01559,1.01559 0 0 1 0,2.03069 z"
           transform="translate(-177.73951,-177.70246)"
           fill="#cacaca"
           id="path259" /><ellipse
           cx="87.893471"
           cy="11.16881"
           rx="10.92534"
           ry="11.16881"
           fill="#3f3d56"
           id="ellipse261" /><ellipse
           cx="125.63554"
           cy="11.16881"
           rx="10.92534"
           ry="11.16881"
           fill="#3f3d56"
           id="ellipse263" /><ellipse
           cx="163.37762"
           cy="11.16881"
           rx="10.92534"
           ry="11.16881"
           fill="#3f3d56"
           id="ellipse265" /><path
           d="m 852.98423,180.47076 h -26.81 a 2.0304,2.0304 0 0 0 0,4.06 h 26.81 a 2.0304,2.0304 0 0 0 0,-4.06 z"
           transform="translate(-177.73951,-177.70246)"
           fill="#3f3d56"
           id="path267" /><path
           d="m 852.98423,188.09076 h -26.81 a 2.0304,2.0304 0 0 0 0,4.06 h 26.81 a 2.0304,2.0304 0 0 0 0,-4.06 z"
           transform="translate(-177.73951,-177.70246)"
           fill="#3f3d56"
           id="path269" /><path
           d="m 852.98423,195.70074 h -26.81 a 2.0304,2.0304 0 0 0 0,4.06 h 26.81 a 2.0304,2.0304 0 0 0 0,-4.06 z"
           transform="translate(-177.73951,-177.70246)"
           fill="#3f3d56"
           id="path271" /><path
           d="m 779.50328,452.98922 a 6.6176,6.6176 0 0 0 10.13608,0.47785 l 21.56551,9.37924 -2.1006,-12.03868 -20.15693,-7.061 a 6.65349,6.65349 0 0 0 -9.44406,9.24262 z"
           transform="translate(-177.73951,-177.70246)"
           fill="#a0616a"
           id="path273" /><path
           d="m 799.12472,446.188 41.19723,5.33928 42.485,-25.59256 a 18.78361,18.78361 0 0 1 26.80668,8.35028 v 0 a 18.80383,18.80383 0 0 1 -8.4331,24.39256 l -57.08925,20.34375 -0.10746,0.0384 -50.0894,-22.31175 z"
           transform="translate(-177.73951,-177.70246)"
           fill="#3f3d56"
           id="path275" /><path
           d="m 859.28737,518.07907 3.42446,-8.561 -2.26477,-7.36036 6.71034,-73.36111 v 0 l 0.99127,-11.11841 0.0668,-8.288 22.946,-0.55964 2.48848,6.31935 4.924,2.9442 a 35.64637,35.64637 0 0 1 17.30724,31.18056 l -0.88947,48.12064 2.28984,4.58023 a 9.63783,9.63783 0 0 1 -5.67976,13.49028 l -50.44447,15.3308 z"
           transform="translate(-177.73951,-177.70246)"
           fill="#3f3d56"
           id="path277" /><circle
           cx="699.84772"
           cy="202.42136"
           r="20.848801"
           fill="#a0616a"
           id="circle279" /><path
           d="m 899.29724,384.66879 c 0.62184,-2.6197 0.33635,-6.30613 -0.0151,-8.94389 a 25.03482,25.03482 0 0 0 -10.59629,-17.38372 7.63326,7.63326 0 0 0 -3.80218,-1.511 3.28226,3.28226 0 0 0 -3.3002,1.99619 6.84189,6.84189 0 0 0 -3.8598,-3.82756 12.05793,12.05793 0 0 0 -5.49444,-0.74021 20.08039,20.08039 0 0 0 -16.75192,11.9747 c -0.55688,1.32291 -2.11229,-3.56352 -2.81785,-2.31357 a 5.55713,5.55713 0 0 1 -3.15143,2.76892 c -1.38251,0.38578 -1.944,6.08184 -2.48811,4.75362 a 6.33176,6.33176 0 0 0 6.05343,8.82879 34.87045,34.87045 0 0 0 4.143,-0.793 10.32927,10.32927 0 0 1 11.3093,7.73074 13.68475,13.68475 0 0 1 1.80033,-4.00553 4.63181,4.63181 0 0 1 3.71585,-2.04166 5.2038,5.2038 0 0 1 3.57592,2.05552 c 0.91784,1.07772 1.6072,2.3351 2.53182,3.407 2.71306,3.14524 6.38255,10.4801 10.24894,9.94514 3.05125,-0.42212 8.04966,-8.32362 8.8987,-11.90048 z"
           transform="translate(-177.73951,-177.70246)"
           fill="#2f2e41"
           id="path281" /><path
           d="m 938.82557,555.89408 a 6.61765,6.61765 0 0 0 -2.83685,-9.74274 l 1.87445,-23.442 -10.70577,5.89313 -0.1387,21.35744 a 6.6535,6.6535 0 0 0 11.80687,5.93417 z"
           transform="translate(-177.73951,-177.70246)"
           fill="#a0616a"
           id="path283" /><path
           d="m 926.02574,539.541 -8.31682,-40.70074 -37.993,-31.88244 a 18.78361,18.78361 0 0 1 -0.79944,-28.06575 v 0 a 18.80382,18.80382 0 0 1 25.80911,0.0622 l 37.76678,47.3996 0.0712,0.0892 -4.85208,54.61886 z"
           transform="translate(-177.73951,-177.70246)"
           fill="#3f3d56"
           id="path285" /><path
           d="m 1021.0698,722.29754 h -347.988 a 1.19069,1.19069 0 1 1 0,-2.38137 h 347.988 a 1.19069,1.19069 0 1 1 0,2.38137 z"
           transform="translate(-177.73951,-177.70246)"
           fill="#cccccc"
           id="path287" /><path
           d="M 796.17743,528.6544 H 638.03771 a 4.16145,4.16145 0 0 1 -4.15662,-4.15662 v -64.16624 a 4.16146,4.16146 0 0 1 4.15662,-4.15663 h 158.13972 a 4.16139,4.16139 0 0 1 4.15662,4.15663 v 64.16624 a 4.16138,4.16138 0 0 1 -4.15662,4.15662 z"
           transform="translate(-177.73951,-177.70246)"
           fill="#6c63ff"
           id="path289"
           style="fill:#494fff;fill-opacity:1" /><path
           d="m 781.11961,559.43533 h -128.024 a 4.98795,4.98795 0 1 1 0,-9.97589 h 128.024 c 6.43254,-0.0898 6.49688,10.06649 0,9.97589 z"
           transform="translate(-177.73951,-177.70246)"
           fill="#e4e4e4"
           id="path291" /><path
           d="m 781.11961,582.29676 h -128.024 a 4.98795,4.98795 0 0 1 0,-9.9759 h 128.024 c 6.43254,-0.0898 6.49688,10.0665 0,9.9759 z"
           transform="translate(-177.73951,-177.70246)"
           fill="#e4e4e4"
           id="path293" /><path
           d="m 781.11961,605.15818 h -128.024 a 4.98795,4.98795 0 1 1 0,-9.97589 h 128.024 c 6.43254,-0.0898 6.49688,10.06649 0,9.97589 z"
           transform="translate(-177.73951,-177.70246)"
           fill="#e4e4e4"
           id="path295" /><path
           d="m 386.63821,642.09329 13.24162,-4.20034 a 44.8221,44.8221 0 0 0 -0.319,-21.56359 c -5.31984,11.82854 -20.92743,14.72661 -29.82018,24.1677 a 26.96059,26.96059 0 0 0 -6.89675,22.32778 l -2.7859,9.45051 a 45.17739,45.17739 0 0 0 32.87975,-18.70324 43.63869,43.63869 0 0 0 5.11331,-9.68013 c -5.64706,-0.56527 -11.41285,-1.79869 -11.41285,-1.79869 z"
           transform="translate(-177.73951,-177.70246)"
           fill="#f2f2f2"
           id="path297" /><path
           d="m 372.4887,624.6179 9.97854,-9.665 a 44.82209,44.82209 0 0 0 -9.90246,-19.15807 c 0.51382,12.9596 -12.16315,22.51418 -15.912,34.93035 a 26.96056,26.96056 0 0 0 3.78488,23.06013 l 1.72124,9.70107 a 45.17744,45.17744 0 0 0 21.08749,-31.40394 43.639,43.639 0 0 0 0.25947,-10.94457 c -5.30642,2.01255 -11.01716,3.48003 -11.01716,3.48003 z"
           transform="translate(-177.73951,-177.70246)"
           fill="#f2f2f2"
           id="path299" /><path
           d="m 399.1658,444.66928 a 7.52289,7.52289 0 0 1 -8.51517,-7.78187 l -48.09647,-48.80072 13.42658,-9.34746 43.05533,50.90877 a 7.56363,7.56363 0 0 1 0.12973,15.02128 z"
           transform="translate(-177.73951,-177.70246)"
           fill="#ffb6b6"
           id="path301" /><path
           d="m 327.75776,366.97811 c 0,0 -3.40875,2.04312 2.26484,8.26467 4.54215,4.98081 24.36293,28.92837 32.27447,33.9282 -0.86281,2.49126 21.02175,26.34234 23.32251,27.863 l 12.164,-15.17955 c -0.6949,-4.35213 -24.62925,-25.12984 -26.27763,-24.60133 l -7.6317,-9.48634 -17.29159,-29.00363 -16.38708,6.69437 z"
           transform="translate(-177.73951,-177.70246)"
           fill="#6c63ff"
           id="path303"
           style="fill:#494fff;fill-opacity:1" /><polygon
           points="112.034,445.078 112.035,480.052 121.102,480.052 125.417,445.078 "
           fill="#ffb6b6"
           id="polygon305" /><path
           d="m 286.81481,651.544 14.48631,-0.86463 v 6.20656 l 13.77254,9.51181 a 3.87685,3.87685 0 0 1 -2.203,7.06714 h -17.24649 l -2.9727,-6.13925 -1.16069,6.13925 h -6.50261 z"
           transform="translate(-177.73951,-177.70246)"
           fill="#2f2e41"
           id="path307" /><polygon
           points="162.968,445.078 162.968,480.052 172.035,480.052 176.35,445.078 "
           fill="#ffb6b6"
           id="polygon309" /><path
           d="m 337.74786,651.544 14.48631,-0.86463 v 6.20656 l 13.77254,9.51181 a 3.87685,3.87685 0 0 1 -2.203,7.06714 h -17.24649 l -2.9727,-6.13925 -1.16069,6.13925 h -6.50261 z"
           transform="translate(-177.73951,-177.70246)"
           fill="#2f2e41"
           id="path311" /><path
           d="m 285.86178,627.59413 h 0.0986 l 1.74384,-56.867 a 14.87005,14.87005 0 0 1 0.19511,-14.05194 l 0.24966,-0.45193 -0.64734,-3.00072 a 19.11352,19.11352 0 0 1 1.09226,-11.50324 l 1.62684,-53.04638 c -5.812,-37.66677 21.88634,-62.23162 21.88634,-62.23162 l -5.06161,-21.29269 50.11155,-4.929 -3.5574,26.22169 8.908,30.60567 c 5.88895,57.374 4.8204,113.28328 -4.52452,167.44994 l 0.25476,0.12883 c 0.91734,0.31665 1.31077,1.58741 0.879,2.83844 -0.43177,1.25103 -1.52548,2.00849 -2.44281,1.69184 l -21.91283,-0.76217 c -0.91733,-0.31657 -1.31091,-1.58741 -0.879,-2.83844 0.43175,-1.251 1.52548,-2.00842 2.44281,-1.69184 l 1.48994,0.75359 -3.17752,-54.87452 0.35263,-10.02317 -0.72647,-11.3711 -3.35883,-51.14711 -12.71368,62.89653 -12.98639,68.1293 a 2.38889,2.38889 0 0 1 -1.61089,4.15967 h -17.732 a 2.39631,2.39631 0 0 1 0,-4.79261 z"
           transform="translate(-177.73951,-177.70246)"
           fill="#2f2e41"
           id="path313" /><path
           d="m 347.397,351.582 -9.85494,-5.913 -19.70988,-1.971 -17.42074,8.871 0.1746,27.09955 11.05157,28.10695 43.05489,8.87405 5.02317,-24.70113 c 0,0 12.81142,-17.20734 -0.98549,-27.06228 z"
           transform="translate(-177.73951,-177.70246)"
           fill="#6c63ff"
           id="path315"
           style="fill:#494fff;fill-opacity:1" /><path
           d="m 305.21219,468.58869 a 7.52287,7.52287 0 0 1 -1.6681,-11.41416 l -6.3551,-68.22312 16.31137,1.25981 1.11782,66.66495 a 7.56363,7.56363 0 0 1 -9.406,11.71252 z"
           transform="translate(-177.73951,-177.70246)"
           fill="#ffb6b6"
           id="path317" /><path
           d="m 301.01556,352.84092 c 0,0 -3.93229,-0.57536 -3.47683,7.83236 0.36464,6.731 -1.36843,48.21939 1.593,57.09749 -2.24467,1.38285 -2.36413,35.15015 -1.54511,37.78361 l 19.0247,-4.05483 c 2.21628,-3.80947 0.75711,-38.72087 -0.85365,-39.35487 l 0.0946,-12.17475 4.20458,-40.13088 -16.19145,-6.63269 z"
           transform="translate(-177.73951,-177.70246)"
           fill="#6c63ff"
           id="path319"
           style="fill:#494fff;fill-opacity:1" /><path
           d="m 398.24783,474.90117 a 5.41136,5.41136 0 0 1 -1.11673,-4.51063 72.0123,72.0123 0 0 0 0,-28.37347 5.41137,5.41137 0 0 1 1.11673,-4.51063 5.28944,5.28944 0 0 1 4.02487,-1.941 c 8.288,-3.30285 16.22505,-3.30325 23.59529,4e-4 a 5.35173,5.35173 0 0 1 5.20457,4.59929 119.10339,119.10339 0 0 1 0,32.07744 5.35142,5.35142 0 0 1 -5.29442,4.60008 h -23.42481 a 5.28843,5.28843 0 0 1 -4.1055,-1.94148 z"
           transform="translate(-177.73951,-177.70246)"
           fill="#6c63ff"
           id="path321"
           style="fill:#494fff;fill-opacity:1" /><path
           d="m 404.8066,447.79526 h 19.716 a 1.23226,1.23226 0 0 0 0,-2.46451 h -19.716 a 1.232255,1.232255 0 0 0 0,2.46451 z"
           transform="translate(-177.73951,-177.70246)"
           fill="#ffffff"
           id="path323" /><path
           d="m 404.8066,457.65327 h 19.716 a 1.23226,1.23226 0 0 0 0,-2.46451 h -19.716 a 1.23226,1.23226 0 0 0 0,2.46451 z"
           transform="translate(-177.73951,-177.70246)"
           fill="#ffffff"
           id="path325" /><path
           d="m 404.8066,467.51127 h 19.716 a 1.23225,1.23225 0 0 0 0,-2.4645 h -19.716 a 1.23225,1.23225 0 0 0 0,2.4645 z"
           transform="translate(-177.73951,-177.70246)"
           fill="#ffffff"
           id="path327" /><path
           d="m 460.40956,673.10754 a 1.18647,1.18647 0 0 1 -1.19007,1.19 h -280.29 a 1.19,1.19 0 1 1 0,-2.38 h 280.29 a 1.18651,1.18651 0 0 1 1.19007,1.19 z"
           transform="translate(-177.73951,-177.70246)"
           fill="#cccccc"
           id="path329" /><path
           id="a0ad7a78-ce9c-4e5a-964d-79d0781968c2-169"
           data-name="a1ca5f83-7fa1-45b1-9d3b-bf096f25c0e5"
           d="m 346.15958,333.62371 v -18.36137 a 24.60388,24.60388 0 1 0 -49.20774,-0.0316 v 0.0316 c -4.33641,9.03639 -1.62353,13.33257 0,18.36137 a 3.309,3.309 0 0 0 3.30352,3.30352 h 42.59906 a 3.30907,3.30907 0 0 0 3.30516,-3.30352 z"
           transform="translate(-177.73951,-177.70246)"
           fill="#2f2e41" /><circle
           cx="151.88324"
           cy="139.61473"
           r="18.416889"
           fill="#ffb7b7"
           id="circle332" /><path
           d="m 310.34868,322.1453 c 0.16692,-0.0264 0.33385,-0.0616 0.50077,-0.0879 2.87277,-0.5095 5.74549,-1.01021 8.60947,-1.52861 l 0.26359,-6.49216 3.47011,5.81568 c 7.91546,2.62677 15.32136,1.14212 22.288,-2.13474 a 62.923,62.923 0 0 0 6.67677,-3.68094 24.40688,24.40688 0 0 0 -11.9918,-17.2717 c -0.26354,-0.14939 -0.51829,-0.28108 -0.78189,-0.413 a 0.00859,0.00859 0 0 1 -0.009,-0.009 c -0.44805,-0.21083 -0.9049,-0.41288 -1.36175,-0.59733 a 20.28683,20.28683 0 0 0 -21.29528,4.129 c -5.62247,5.36784 -8.15261,14.23207 -6.36925,22.27053 z"
           transform="translate(-177.73951,-177.70246)"
           fill="#2f2e41"
           id="path334" /></g></g></g></svg>
